<svg xmlns="http://www.w3.org/2000/svg" xmlns:xlink="http://www.w3.org/1999/xlink" width="232.23" height="61.048" viewBox="0 0 232.23 61.048">
  <defs>
    <radialGradient id="radial-gradient" cx="0.5" cy="0.5" r="3.431" gradientTransform="translate(0.446 0.308) scale(0.106 0.434)" gradientUnits="objectBoundingBox">
      <stop offset="0"/>
      <stop offset="1" stop-opacity="0"/>
    </radialGradient>
    <radialGradient id="radial-gradient-2" cx="0.5" cy="0.5" fx="0.1232217475771904" fy="0.4334060251712799" r="0.5" gradientUnits="objectBoundingBox">
      <stop offset="0" stop-color="#27adeb"/>
      <stop offset="0.125" stop-color="#2297d1"/>
      <stop offset="0.551" stop-color="#13537f"/>
      <stop offset="0.853" stop-color="#0a284b"/>
      <stop offset="1" stop-color="#071838"/>
    </radialGradient>
    <radialGradient id="radial-gradient-3" cx="0.5" cy="0.5" r="0.5" gradientUnits="objectBoundingBox">
      <stop offset="0" stop-color="#dddcdd"/>
      <stop offset="0.138" stop-color="#d1d0d1"/>
      <stop offset="0.386" stop-color="#b2b1b2"/>
      <stop offset="0.711" stop-color="#818080"/>
      <stop offset="1" stop-color="#504f4f"/>
    </radialGradient>
    <linearGradient id="linear-gradient" x1="0.5" y1="0.954" x2="0.5" y2="0.06" gradientUnits="objectBoundingBox">
      <stop offset="0" stop-color="#fff" stop-opacity="0.898"/>
      <stop offset="0.24" stop-color="#d4d3d3" stop-opacity="0.71"/>
      <stop offset="0.61" stop-color="#969595" stop-opacity="0.439"/>
      <stop offset="0.872" stop-color="#6f6e6e" stop-opacity="0.267"/>
      <stop offset="1" stop-color="#605f5f" stop-opacity="0.2"/>
    </linearGradient>
  </defs>
  <g id="CX_Logo_Header" data-name="CX Logo Header" transform="translate(17013.576 15031)">
    <ellipse id="Shadow" cx="33.292" cy="3.562" rx="33.292" ry="3.562" transform="translate(-17010.576 -14980.076)" fill="url(#radial-gradient)"/>
    <path id="Tagline" d="M345.152,219.694a9.089,9.089,0,0,0,1.019.3,6.168,6.168,0,0,0,1.3.132,2.845,2.845,0,0,0,1.811-.491,1.643,1.643,0,0,0,.607-1.339,1.675,1.675,0,0,0-.132-.717,1.62,1.62,0,0,0-.378-.529,2.885,2.885,0,0,0-.642-.378c-.245-.113-.547-.245-.887-.378l-.849-.339a6.184,6.184,0,0,1-.793-.378,2.718,2.718,0,0,1-.623-.529,2.2,2.2,0,0,1-.4-.717,2.944,2.944,0,0,1-.151-.963,2.565,2.565,0,0,1,.924-2.114,4.055,4.055,0,0,1,2.584-.773,7.8,7.8,0,0,1,2.471.4,4.712,4.712,0,0,1-.321,1.227,7.957,7.957,0,0,0-.924-.264,5.658,5.658,0,0,0-1.188-.113,2.4,2.4,0,0,0-1.434.377,1.364,1.364,0,0,0-.491,1.132,1.191,1.191,0,0,0,.131.566,1.366,1.366,0,0,0,.321.415,2.958,2.958,0,0,0,.472.321,4.435,4.435,0,0,0,.607.264l.83.321a7.952,7.952,0,0,1,1.057.491,2.9,2.9,0,0,1,.793.622,2.255,2.255,0,0,1,.491.83,3.284,3.284,0,0,1,.17,1.114,2.88,2.88,0,0,1-1.057,2.4,4.423,4.423,0,0,1-2.944.887c-.3,0-.585-.019-.83-.038s-.472-.057-.7-.094c-.208-.038-.415-.094-.623-.151-.188-.057-.4-.113-.623-.188a3.3,3.3,0,0,1,.132-.679A4.755,4.755,0,0,0,345.152,219.694Zm9.888-1.9a2.429,2.429,0,0,0,.66,1.83,2.578,2.578,0,0,0,1.811.585,5.45,5.45,0,0,0,2-.358,2.6,2.6,0,0,1,.188.548,3.5,3.5,0,0,1,.094.642,4.731,4.731,0,0,1-1.075.3,6.833,6.833,0,0,1-1.283.094,5.106,5.106,0,0,1-1.793-.283,3.111,3.111,0,0,1-1.227-.81,3.27,3.27,0,0,1-.717-1.245,5.186,5.186,0,0,1-.227-1.585,6.079,6.079,0,0,1,.2-1.585,3.116,3.116,0,0,1,.66-1.264,3.171,3.171,0,0,1,1.114-.868,3.737,3.737,0,0,1,1.6-.321,3.448,3.448,0,0,1,1.378.264,2.609,2.609,0,0,1,1,.736,3.713,3.713,0,0,1,.623,1.114,4.709,4.709,0,0,1,.207,1.4,3.515,3.515,0,0,1-.019.434c-.019.151-.019.284-.038.378Zm3.841-1.081a2.772,2.772,0,0,0-.113-.792,2.387,2.387,0,0,0-.321-.66,1.207,1.207,0,0,0-.566-.434,1.951,1.951,0,0,0-2.17.4,2.558,2.558,0,0,0-.585,1.509h3.755v-.019Zm3.4-3.038a2.011,2.011,0,0,1,.334-.038c.1,0,.216-.019.334-.019a1.655,1.655,0,0,1,.316.019c.1.019.2.019.317.038.039.151.059.339.1.585a3.608,3.608,0,0,1,.039.623,5.664,5.664,0,0,1,.334-.529,2.7,2.7,0,0,1,.492-.434,2.147,2.147,0,0,1,.669-.3,2.715,2.715,0,0,1,.826-.113,2.058,2.058,0,0,1,2.183,1.378,2.7,2.7,0,0,1,.373-.491,2.644,2.644,0,0,1,.492-.434,2.028,2.028,0,0,1,.649-.3,2.579,2.579,0,0,1,.806-.113,2.459,2.459,0,0,1,2,.755,3.264,3.264,0,0,1,.633,2.189v4.849a2.264,2.264,0,0,1-.373.037,2.77,2.77,0,0,1-.373.019,2.627,2.627,0,0,1-.373-.019c-.137-.019-.255-.019-.373-.037v-4.455a2.887,2.887,0,0,0-.281-1.429,1.05,1.05,0,0,0-.942-.488,1.47,1.47,0,0,0-1.134.506,2.3,2.3,0,0,0-.418,1.5v4.365a2.169,2.169,0,0,1-.373.039,3.544,3.544,0,0,1-.747,0c-.137-.02-.255-.02-.373-.039v-4.516a2.954,2.954,0,0,0-.28-1.456,1.03,1.03,0,0,0-.933-.486,1.768,1.768,0,0,0-.691.149,2.2,2.2,0,0,0-.579.467,2.236,2.236,0,0,0-.374.821,4.158,4.158,0,0,0-.13,1.139v3.865a2.286,2.286,0,0,1-.373.038,3.7,3.7,0,0,1-.747,0c-.137-.019-.275-.019-.373-.038v-7.566h-.651Zm17.728,2.591a1.524,1.524,0,0,0-.452-1.258,2.166,2.166,0,0,0-1.336-.354,5.68,5.68,0,0,0-1.022.079c-.316.059-.633.137-.923.216a2.379,2.379,0,0,1-.3-1.219,6.321,6.321,0,0,1,1.16-.255,8.708,8.708,0,0,1,1.219-.1,3.43,3.43,0,0,1,2.338.707,2.762,2.762,0,0,1,.806,2.24v4.955c-.354.079-.806.157-1.317.255a10.35,10.35,0,0,1-1.572.137,5.74,5.74,0,0,1-1.356-.137,3.131,3.131,0,0,1-1.042-.432,2.192,2.192,0,0,1-.668-.786,2.594,2.594,0,0,1-.236-1.159,2.25,2.25,0,0,1,.275-1.16,2.2,2.2,0,0,1,.746-.843,3.506,3.506,0,0,1,1.061-.491,4.417,4.417,0,0,1,1.258-.157c.316,0,.609,0,.805.02s.373.039.55.059v-.275h0Zm-.018,1.532c-.151-.019-.321-.038-.566-.057-.227-.019-.415-.038-.585-.038a2.384,2.384,0,0,0-1.4.339,1.193,1.193,0,0,0-.472,1.038,1.471,1.471,0,0,0,.151.7,1.144,1.144,0,0,0,.944.528,5.63,5.63,0,0,0,.566.037c.227,0,.453-.019.717-.037a3.194,3.194,0,0,0,.66-.113v-2.4Zm4.059-4.054a2.013,2.013,0,0,1,.334-.038c.1,0,.211-.019.335-.019a1.656,1.656,0,0,1,.316.019c.1.019.2.019.316.038.039.151.059.339.1.607a3.837,3.837,0,0,1,.039.642,2.861,2.861,0,0,1,.393-.491,2.043,2.043,0,0,1,.55-.434,2.411,2.411,0,0,1,.708-.321,3.213,3.213,0,0,1,.885-.132,2.481,2.481,0,0,1,2,.755,3.253,3.253,0,0,1,.649,2.208v4.812a2.287,2.287,0,0,1-.373.038,2.769,2.769,0,0,1-.373.019,2.625,2.625,0,0,1-.373-.019c-.137-.019-.255-.019-.373-.038V216.94a2.99,2.99,0,0,0-.319-1.538,1.155,1.155,0,0,0-1.032-.488,2.258,2.258,0,0,0-.788.15,1.875,1.875,0,0,0-.656.45,2.215,2.215,0,0,0-.45.805,3.657,3.657,0,0,0-.169,1.182v3.887a2.284,2.284,0,0,1-.373.038,3.7,3.7,0,0,1-.747,0c-.137-.019-.275-.019-.373-.038l-.059-7.642Zm9.62,1.067H392.5l-.057-.2,2.6-2.785h.115v1.921h1.78a2.3,2.3,0,0,1,.053.524,1.4,1.4,0,0,1-.018.281c-.018.087-.018.174-.035.262h-1.78v3.378a6.587,6.587,0,0,0,.058.978,1.88,1.88,0,0,0,.172.572.484.484,0,0,0,.344.258,2.216,2.216,0,0,0,.555.055,3.819,3.819,0,0,0,.478-.037c.153-.019.287-.055.4-.074a2.034,2.034,0,0,1,.133.609,5.237,5.237,0,0,1,.02.535,5.484,5.484,0,0,1-.631.111c-.21.019-.44.037-.707.037a2.549,2.549,0,0,1-1.7-.517,2.083,2.083,0,0,1-.615-1.682V214.83h0Zm5.953,0H398.6a.943.943,0,0,1-.04-.248,1.35,1.35,0,0,1-.02-.285,1.447,1.447,0,0,1,.02-.285c.02-.088.02-.177.04-.248h2.529v7.125a2.478,2.478,0,0,1-.378.035,2.832,2.832,0,0,1-.378.018,2.7,2.7,0,0,1-.359-.018c-.139-.018-.259-.018-.378-.035l-.02-6.061Zm-.369-2.774a2.265,2.265,0,0,1-.039-.377v-.717a1.845,1.845,0,0,1,.039-.358,3.058,3.058,0,0,1,.432-.038c.157,0,.275-.019.393-.019a3.016,3.016,0,0,1,.393.019c.157.019.295.019.412.038a2.023,2.023,0,0,1,.039.358v.717a.3.3,0,0,1-.115.415.327.327,0,0,1-.317,0,2.9,2.9,0,0,1-.393.019,3.32,3.32,0,0,1-.412-.019,3.032,3.032,0,0,1-.435-.038Zm9.871,7.9a2.042,2.042,0,0,1,.208.528,2.406,2.406,0,0,1,.094.642,5.492,5.492,0,0,1-2,.339,3.688,3.688,0,0,1-2.868-1.075,4.188,4.188,0,0,1-.963-2.906,5.458,5.458,0,0,1,.227-1.585,3.042,3.042,0,0,1,.717-1.245,3.4,3.4,0,0,1,1.17-.849,3.9,3.9,0,0,1,1.62-.3,6.221,6.221,0,0,1,1.095.076,7.06,7.06,0,0,1,.906.227,3.576,3.576,0,0,1-.057.585,2.369,2.369,0,0,1-.188.585,4.963,4.963,0,0,0-1.66-.245,2.007,2.007,0,0,0-1.721.755,3.227,3.227,0,0,0-.566,2,2.851,2.851,0,0,0,.642,2.076,2.318,2.318,0,0,0,1.754.66,5.762,5.762,0,0,0,.83-.057,2.825,2.825,0,0,0,.758-.208Zm5.872-9.277a2.366,2.366,0,0,1,.4-.038,3.671,3.671,0,0,1,.453-.019,3.088,3.088,0,0,1,.415.019c.132.019.264.019.378.038l1.821,8.865,2.189-8.868a2.337,2.337,0,0,1,.377-.038,2.914,2.914,0,0,1,.4-.019,3.063,3.063,0,0,1,.4.019c.151.019.264.019.378.038l2.208,8.962,1.849-8.962a2.074,2.074,0,0,1,.339-.038,2.276,2.276,0,0,1,.358-.019,3.052,3.052,0,0,1,.415.019c.131.019.264.019.378.038L425.173,221.3a2.383,2.383,0,0,1-.415.037,3.329,3.329,0,0,1-.415.019,3.949,3.949,0,0,1-.452-.019c-.17-.019-.321-.019-.453-.037l-2.114-8.34-2.132,8.34a3.113,3.113,0,0,1-.453.037,3.626,3.626,0,0,1-.453.019,3.022,3.022,0,0,1-.4-.019c-.151-.019-.284-.019-.4-.037Zm15.567,7.14a2.429,2.429,0,0,0,.651,1.829,2.577,2.577,0,0,0,1.811.585,5.451,5.451,0,0,0,2-.358,2.62,2.62,0,0,1,.188.548,3.5,3.5,0,0,1,.094.642,4.729,4.729,0,0,1-1.075.3,6.833,6.833,0,0,1-1.283.094,5.106,5.106,0,0,1-1.793-.283,3.108,3.108,0,0,1-1.227-.81,3.273,3.273,0,0,1-.717-1.245,5.192,5.192,0,0,1-.227-1.585,6.073,6.073,0,0,1,.208-1.585,3.238,3.238,0,0,1,.66-1.264,3.17,3.17,0,0,1,1.114-.868,3.737,3.737,0,0,1,1.6-.321,3.45,3.45,0,0,1,1.378.264,2.61,2.61,0,0,1,1,.736,3.718,3.718,0,0,1,.623,1.114,4.715,4.715,0,0,1,.2,1.4,3.509,3.509,0,0,1-.019.434c-.019.151-.019.284-.038.378Zm3.862-1.082a2.784,2.784,0,0,0-.113-.792,2.388,2.388,0,0,0-.321-.66,1.207,1.207,0,0,0-.566-.434,1.951,1.951,0,0,0-2.169.4,2.555,2.555,0,0,0-.585,1.509h3.755v-.019Zm3.841-6.479a2.171,2.171,0,0,1,.373-.039,3.576,3.576,0,0,1,.747,0c.137.02.275.02.373.039v4.345a2.3,2.3,0,0,1,.865-.806,2.9,2.9,0,0,1,1.416-.334,3.563,3.563,0,0,1,1.318.236,2.713,2.713,0,0,1,1.042.728,3.917,3.917,0,0,1,.688,1.239,5.845,5.845,0,0,1,.236,1.769,4.3,4.3,0,0,1-1.14,3.186,4.468,4.468,0,0,1-3.3,1.14,6.849,6.849,0,0,1-1.4-.137,7.379,7.379,0,0,1-1.219-.3V210.255h0Zm1.458,9.856a3.892,3.892,0,0,0,.585.132c.208.019.4.037.642.037a2.959,2.959,0,0,0,1.019-.17,2.089,2.089,0,0,0,.81-.529,2.735,2.735,0,0,0,.548-.887,3.754,3.754,0,0,0,.188-1.283,3.573,3.573,0,0,0-.415-1.906,1.56,1.56,0,0,0-1.417-.679,2.137,2.137,0,0,0-.679.113,2.251,2.251,0,0,0-.623.34,1.579,1.579,0,0,0-.452.66,2.535,2.535,0,0,0-.17.981l-.038,3.189Zm7.788-.51c.113-.019.227-.037.358-.057a2.072,2.072,0,0,1,.34-.019,3.786,3.786,0,0,1,.755.076l-.943,3.3a2.109,2.109,0,0,1-.358.038h-.7a2.087,2.087,0,0,1-.34-.038Zm9.778-7.543h-2.726a1.636,1.636,0,0,1-.037-.315,2.033,2.033,0,0,1-.019-.334,1.811,1.811,0,0,1,.019-.315c.019-.111.019-.2.037-.315h6.951a1.636,1.636,0,0,1,.037.3,1.815,1.815,0,0,1,.019.32,2.04,2.04,0,0,1-.019.339c-.019.113-.019.226-.037.32H458.75v9.144a4.572,4.572,0,0,1-.737.037c-.277,0-.536-.019-.756-.037l.019-9.142Zm8.28,9.45a3.685,3.685,0,0,1-1.566-.3,3.079,3.079,0,0,1-1.114-.849,3.43,3.43,0,0,1-.66-1.245,5.865,5.865,0,0,1-.2-1.585,6.188,6.188,0,0,1,.2-1.585,3.164,3.164,0,0,1,.66-1.245,3.361,3.361,0,0,1,1.114-.849,3.629,3.629,0,0,1,1.566-.3,3.685,3.685,0,0,1,1.566.3,3.082,3.082,0,0,1,1.114.849,3.431,3.431,0,0,1,.66,1.245,5.866,5.866,0,0,1,.208,1.585,6.192,6.192,0,0,1-.208,1.585,3.165,3.165,0,0,1-.66,1.245,3.361,3.361,0,0,1-1.114.849,3.745,3.745,0,0,1-1.576.3Zm0-1.151a1.654,1.654,0,0,0,1.51-.755,4.719,4.719,0,0,0,0-4.113,1.721,1.721,0,0,0-1.51-.736,1.628,1.628,0,0,0-1.491.736,3.857,3.857,0,0,0-.472,2.057,3.731,3.731,0,0,0,.472,2.057,1.585,1.585,0,0,0,1.481.749Zm10.916-9.774a2.194,2.194,0,0,1,.368-.037,3.6,3.6,0,0,1,.736,0c.135.019.251.019.368.037V221.2a10.391,10.391,0,0,1-1.3.264,10.212,10.212,0,0,1-1.608.113,5.8,5.8,0,0,1-1.55-.189,3.037,3.037,0,0,1-1.278-.66,3.1,3.1,0,0,1-.872-1.188,4.395,4.395,0,0,1-.312-1.793,5.106,5.106,0,0,1,.271-1.68,3.376,3.376,0,0,1,.794-1.283,3.585,3.585,0,0,1,1.24-.849,4.35,4.35,0,0,1,1.608-.284,5.619,5.619,0,0,1,.794.057,6.75,6.75,0,0,1,.717.151v-3.321h.02Zm-.06,4.444a2.9,2.9,0,0,0-.642-.17,4.571,4.571,0,0,0-.755-.057,2.354,2.354,0,0,0-1.057.227,1.944,1.944,0,0,0-.736.623,3.046,3.046,0,0,0-.415.906,4.386,4.386,0,0,0-.132,1.151,2.65,2.65,0,0,0,.679,2.019,2.55,2.55,0,0,0,1.793.623c.245,0,.491-.019.717-.038a2.913,2.913,0,0,0,.585-.113v-5.151h-.046Zm8.361,1.263a1.523,1.523,0,0,0-.452-1.257,2.163,2.163,0,0,0-1.335-.354,5.666,5.666,0,0,0-1.021.079c-.316.059-.632.137-.923.216a2.379,2.379,0,0,1-.3-1.218,6.327,6.327,0,0,1,1.159-.255,8.737,8.737,0,0,1,1.218-.1,3.426,3.426,0,0,1,2.336.707,2.76,2.76,0,0,1,.8,2.238v4.951c-.354.079-.8.157-1.316.255a10.389,10.389,0,0,1-1.571.137,5.755,5.755,0,0,1-1.354-.137A3.132,3.132,0,0,1,481,221.1a2.191,2.191,0,0,1-.668-.786,2.594,2.594,0,0,1-.236-1.159,2.462,2.462,0,0,1,.275-1.159,2.2,2.2,0,0,1,.746-.843,3.509,3.509,0,0,1,1.06-.491,5.241,5.241,0,0,1,1.257-.157c.316,0,.609,0,.8.02.216.02.373.039.55.059v-.275h0Zm-.019,1.53c-.151-.019-.321-.038-.566-.057-.227-.019-.415-.038-.585-.038a2.383,2.383,0,0,0-1.4.339,1.193,1.193,0,0,0-.472,1.038,1.475,1.475,0,0,0,.151.7,1.143,1.143,0,0,0,.944.528,5.631,5.631,0,0,0,.566.037c.227,0,.453-.019.717-.037a3.194,3.194,0,0,0,.66-.113v-2.4Zm6.9,3.628h-.8c-.114,0-.189-.019-.266-.019l-2.523-7.625a2.849,2.849,0,0,1,.4-.038h.8a2.383,2.383,0,0,1,.4.038l2.125,7.094,2.181-7.094a4.268,4.268,0,0,1,.74-.038h.36a3.372,3.372,0,0,1,.417.038l-2.959,9.18a8.146,8.146,0,0,1-.417,1.025,2.633,2.633,0,0,1-.494.683,1.42,1.42,0,0,1-.645.341,2.6,2.6,0,0,1-.814.095,4.139,4.139,0,0,1-.683-.057,3.906,3.906,0,0,1-.588-.132,3.342,3.342,0,0,1,.057-.626,4.412,4.412,0,0,1,.171-.551,3.117,3.117,0,0,0,.36.095,2.063,2.063,0,0,0,.494.057,2.1,2.1,0,0,0,.36-.038.827.827,0,0,0,.323-.152.928.928,0,0,0,.266-.322,2.809,2.809,0,0,0,.246-.569Zm5.944-.11q-.047-.395-.057-.793a3.085,3.085,0,0,1,.019-.415c.019-.132.019-.283.038-.415q.395-.047.793-.057a3.053,3.053,0,0,1,.415.019c.131.019.283.019.415.038a2.828,2.828,0,0,1,.037.415,2.923,2.923,0,0,1,.019.415,3.055,3.055,0,0,1-.019.415c-.019.131-.019.264-.037.415a2.86,2.86,0,0,1-.415.038,2.947,2.947,0,0,1-.415.019,3.209,3.209,0,0,1-.415-.019,1.653,1.653,0,0,0-.387-.076Zm.1-10.668a2.542,2.542,0,0,1,.378-.037,2.391,2.391,0,0,1,.378-.019,3.173,3.173,0,0,1,.416.019c.132.019.265.019.416.037L499.2,218.1a4.2,4.2,0,0,1-.7.057,3.884,3.884,0,0,1-.7-.057Z" transform="translate(-17280.754 -15205.185)" fill="#707070"/>
    <path id="Name" d="M361.061,88.439a13.593,13.593,0,0,1,.717,1.906,13.949,13.949,0,0,1,.415,1.962,15.913,15.913,0,0,1-3.095.83,20.674,20.674,0,0,1-2.962.207,12.463,12.463,0,0,1-4.925-.906,9.717,9.717,0,0,1-3.543-2.547A10.865,10.865,0,0,1,345.5,86a15.607,15.607,0,0,1-.736-4.887,15.274,15.274,0,0,1,.755-4.906,11.593,11.593,0,0,1,2.189-3.906,10.134,10.134,0,0,1,3.528-2.586,11.589,11.589,0,0,1,4.774-.924,19.9,19.9,0,0,1,2.925.208,13.056,13.056,0,0,1,2.887.83,6.733,6.733,0,0,1-.4,1.923c-.227.623-.472,1.264-.736,1.906a15.067,15.067,0,0,0-2.057-.566,11.569,11.569,0,0,0-2.114-.17,5.936,5.936,0,0,0-4.868,2.057c-1.132,1.378-1.7,3.416-1.7,6.133q0,8.067,6.83,8.057a12.149,12.149,0,0,0,2.151-.17A12.835,12.835,0,0,0,361.061,88.439Zm11.7,4.887a8.935,8.935,0,0,1-3.623-.679,6.924,6.924,0,0,1-2.547-1.887,8.347,8.347,0,0,1-1.529-2.835,11.6,11.6,0,0,1-.506-3.51,11.809,11.809,0,0,1,.506-3.528,7.958,7.958,0,0,1,1.529-2.849,7.189,7.189,0,0,1,2.547-1.906,8.562,8.562,0,0,1,3.623-.7,8.708,8.708,0,0,1,3.645.7,7.324,7.324,0,0,1,2.584,1.906,8.122,8.122,0,0,1,1.529,2.849,11.9,11.9,0,0,1,.491,3.528,12.422,12.422,0,0,1-.491,3.51,7.9,7.9,0,0,1-1.529,2.835A6.911,6.911,0,0,1,376.4,92.65a9.157,9.157,0,0,1-3.645.679Zm0-3.567a2.848,2.848,0,0,0,2.66-1.378,7.734,7.734,0,0,0,.81-3.948,7.737,7.737,0,0,0-.81-3.948,2.885,2.885,0,0,0-2.66-1.36,2.787,2.787,0,0,0-2.623,1.378,7.734,7.734,0,0,0-.81,3.948,7.734,7.734,0,0,0,.81,3.948,2.768,2.768,0,0,0,2.623,1.364Zm11.933-13.873a7.8,7.8,0,0,1,.913-.149,8.158,8.158,0,0,1,1.007-.056,8.4,8.4,0,0,1,1.865.2,1.6,1.6,0,0,1,.186.466,6.685,6.685,0,0,1,.149.652l.112.671c.037.224.056.41.075.559a9.069,9.069,0,0,1,.783-.988,4.945,4.945,0,0,1,1.062-.876,6.1,6.1,0,0,1,1.362-.634,5.254,5.254,0,0,1,1.66-.242,5.612,5.612,0,0,1,4.326,1.567q1.454,1.567,1.454,4.923V92.932a14.248,14.248,0,0,1-2.347.208,12.442,12.442,0,0,1-2.347-.208v-9.7a5.45,5.45,0,0,0-.528-2.634,1.928,1.928,0,0,0-1.837-.928,4,4,0,0,0-1.109.164,2.359,2.359,0,0,0-1.036.618,3.268,3.268,0,0,0-.746,1.288,6.469,6.469,0,0,0-.293,2.164v9.025a14.248,14.248,0,0,1-2.347.208,12.443,12.443,0,0,1-2.347-.208V75.889Zm19.224-.04a7.884,7.884,0,0,1,.926-.151,8.305,8.305,0,0,1,1.022-.057,7.449,7.449,0,0,1,.983.057,7.94,7.94,0,0,1,.889.151,2.417,2.417,0,0,1,.189.473q.092.327.151.662l.114.681c.038.227.057.416.076.567a9.228,9.228,0,0,1,.795-1,5.006,5.006,0,0,1,1.078-.889,6.183,6.183,0,0,1,1.381-.644,5.324,5.324,0,0,1,1.683-.245,5.692,5.692,0,0,1,4.388,1.589q1.476,1.589,1.475,4.993v10.9a14.243,14.243,0,0,1-2.347.208,12.443,12.443,0,0,1-2.347-.208v-9.64a5.662,5.662,0,0,0-.548-2.735,2,2,0,0,0-1.908-.963,4.149,4.149,0,0,0-1.152.17,2.45,2.45,0,0,0-1.076.642,3.394,3.394,0,0,0-.774,1.34,6.726,6.726,0,0,0-.3,2.247v8.942a14.22,14.22,0,0,1-2.347.208,12.441,12.441,0,0,1-2.347-.208V75.845ZM427.17,85.937a3.558,3.558,0,0,0,1.4,2.868,5.516,5.516,0,0,0,3.3.887,13.121,13.121,0,0,0,4.529-.815,6.936,6.936,0,0,1,.623,1.585,8.377,8.377,0,0,1,.3,1.981,16.111,16.111,0,0,1-5.812,1,11.392,11.392,0,0,1-4.076-.66,7,7,0,0,1-4.359-4.623,11.727,11.727,0,0,1-.506-3.528A11.234,11.234,0,0,1,423.1,81.1a8.286,8.286,0,0,1,1.566-2.868,7.374,7.374,0,0,1,2.586-1.924,8.5,8.5,0,0,1,3.585-.717,7.666,7.666,0,0,1,3.17.622,6.984,6.984,0,0,1,2.359,1.721,7.57,7.57,0,0,1,1.472,2.585,9.96,9.96,0,0,1,.491,3.226q0,.623-.057,1.245c-.038.415-.076.736-.113.981H427.174V85.94Zm6.651-3.357a4.23,4.23,0,0,0-.868-2.566,2.835,2.835,0,0,0-2.262-.979,3.241,3.241,0,0,0-2.51.924,4.43,4.43,0,0,0-1.018,2.6h6.661Zm9.719,1.536-3.264-8.265a13.579,13.579,0,0,1,2.415-.208,16.964,16.964,0,0,1,2.547.208l2.6,8.359-3.4,8.717a13.931,13.931,0,0,1-4.792,0Zm4.528.094,2.641-8.359a15.827,15.827,0,0,1,2.547-.208,14.722,14.722,0,0,1,2.416.208l-3.3,8.27,3.925,8.808a16.37,16.37,0,0,1-2.453.207,12.4,12.4,0,0,1-2.34-.207Zm11.541-4.848h-2.192l-.17-.659,6.159-7.877h.685v4.908h4.292c.058.346.116.633.134.9s.038.557.038.844c0,.309-.02.618-.038.9s-.078.618-.134.979H464.3v6.813a6.8,6.8,0,0,0,.173,1.689,2.633,2.633,0,0,0,.481,1.017,1.507,1.507,0,0,0,.788.5,3.865,3.865,0,0,0,1.116.134,5.717,5.717,0,0,0,1-.077c.327-.058.619-.115.866-.153a7.431,7.431,0,0,1,.347,1.324,7.309,7.309,0,0,1,.1,1.228,5.609,5.609,0,0,1-.02.618,3.673,3.673,0,0,1-.058.48,13.584,13.584,0,0,1-3.194.364,6.908,6.908,0,0,1-4.675-1.42c-1.078-.96-1.617-2.5-1.617-4.645V79.362Zm20.72,2.393a2.71,2.71,0,0,0-.26-1.259,1.787,1.787,0,0,0-.722-.759,2.716,2.716,0,0,0-1.111-.371,11.747,11.747,0,0,0-1.481-.092,11.2,11.2,0,0,0-3.722.686,8.8,8.8,0,0,1-.686-1.59,6.3,6.3,0,0,1-.222-1.778,17.9,17.9,0,0,1,2.852-.722,17.238,17.238,0,0,1,2.667-.222,7.776,7.776,0,0,1,5.259,1.63c1.259,1.074,1.888,2.815,1.888,5.186v9.723a27.217,27.217,0,0,1-2.759.686,18.2,18.2,0,0,1-3.666.334,14.075,14.075,0,0,1-3.038-.3,6.853,6.853,0,0,1-2.371-.963,4.491,4.491,0,0,1-1.517-1.762,5.883,5.883,0,0,1-.537-2.63,4.8,4.8,0,0,1,.667-2.611,5.17,5.17,0,0,1,1.722-1.689,7.494,7.494,0,0,1,2.352-.907,12.336,12.336,0,0,1,2.592-.278c.63,0,1.315.037,2.075.092v-.407Zm0,3.347c-.264-.037-.548-.076-.868-.113a6.793,6.793,0,0,0-.83-.057,4.832,4.832,0,0,0-2.566.585,2.025,2.025,0,0,0-.944,1.868,2.077,2.077,0,0,0,.358,1.316,2.321,2.321,0,0,0,.868.679,3.447,3.447,0,0,0,1.094.264c.378.038.717.057,1,.057a5.941,5.941,0,0,0,1-.076c.34-.057.623-.113.868-.151l.018-4.376Zm8.724-9.367a9.5,9.5,0,0,1,.947-.152,7.872,7.872,0,0,1,.984-.057,5.574,5.574,0,0,1,.984.077,7.515,7.515,0,0,1,.947.171,2.444,2.444,0,0,1,.189.475c.057.209.114.438.151.665s.076.476.114.7.057.418.076.59a8.282,8.282,0,0,1,1.8-1.845,4.16,4.16,0,0,1,2.65-.817c.228,0,.473.02.758.038a3.1,3.1,0,0,1,.625.1,7.548,7.548,0,0,1,.095.761c.019.286.038.59.038.894,0,.381-.019.78-.057,1.237a8.962,8.962,0,0,1-.189,1.275,5.286,5.286,0,0,0-.812-.057h-.55a8.032,8.032,0,0,0-1.269.114,2.9,2.9,0,0,0-1.32.612,3.65,3.65,0,0,0-1.041,1.5,7.36,7.36,0,0,0-.416,2.8v8.179c-.4.057-.8.114-1.192.133s-.776.038-1.155.038-.758-.019-1.136-.038a9.373,9.373,0,0,1-1.212-.133V75.734Z" transform="translate(-17280.754 -15095.57)" fill="#494949"/>
    <ellipse id="Blue_Globe" data-name="Blue Globe" cx="24.647" cy="24.647" rx="24.647" ry="24.647" transform="translate(-17002.361 -15028.439)" fill="url(#radial-gradient-2)"/>
    <path id="Grey_Globe" data-name="Grey Globe" d="M65.208,50A27.208,27.208,0,1,0,92.416,77.208,27.208,27.208,0,0,0,65.208,50Zm16.4,13.113a8.467,8.467,0,0,1-2.059,2.649l-.311-.564a11.719,11.719,0,0,0-3.908-4.428,8.411,8.411,0,0,0-5.77-1.3,11.32,11.32,0,0,0-5.323,2.319A16.732,16.732,0,0,0,59.2,68.426a32.273,32.273,0,0,0-2.394,8.28,32.721,32.721,0,0,0-.4,6.455,16.826,16.826,0,0,0,1.283,6.3,8.891,8.891,0,0,0,1.544,2.355,5.683,5.683,0,0,0,3.1,1.59,14.9,14.9,0,0,0,7.836-.436,20.22,20.22,0,0,0,7.713-4.562c.882-.8,1.719-1.652,2.582-2.486a4.2,4.2,0,0,1-.733,4.858A14.048,14.048,0,0,1,75.753,94a25.2,25.2,0,0,1-9.392,3.4,18.592,18.592,0,0,1-9.512-.81,12.476,12.476,0,0,1-7.958-9.5A22.4,22.4,0,0,1,48.6,80.3,25.584,25.584,0,0,1,51.683,69.9,26.276,26.276,0,0,1,62.262,59.21a20.353,20.353,0,0,1,7.307-2.275,19.328,19.328,0,0,1,7.3.353,9.341,9.341,0,0,1,3.892,1.943A3.168,3.168,0,0,1,81.611,63.113Z" transform="translate(-17042.922 -15081)" fill="url(#radial-gradient-3)"/>
    <ellipse id="Highlight" cx="17.605" cy="15.471" rx="17.605" ry="15.471" transform="translate(-16995.32 -15031)" fill="url(#linear-gradient)" style="isolation: isolate"/>
  </g>
</svg>
